<svg id="visual" viewBox="0 0 960 540" width="960" height="540" xmlns="http://www.w3.org/2000/svg" xmlns:xlink="http://www.w3.org/1999/xlink" version="1.1"><rect x="0" y="0" width="960" height="540" fill="#cce1f1"></rect><path d="M0 377L22.8 380.2C45.7 383.3 91.3 389.7 137 380.7C182.7 371.7 228.3 347.3 274 344.7C319.7 342 365.3 361 411.2 366.2C457 371.3 503 362.7 548.8 351.7C594.7 340.7 640.3 327.3 686 335C731.7 342.7 777.3 371.3 823 380.8C868.7 390.3 914.3 380.7 937.2 375.8L960 371L960 541L937.2 541C914.3 541 868.7 541 823 541C777.3 541 731.7 541 686 541C640.3 541 594.7 541 548.8 541C503 541 457 541 411.2 541C365.3 541 319.7 541 274 541C228.3 541 182.7 541 137 541C91.3 541 45.7 541 22.8 541L0 541Z" fill="#6600ff"></path><path d="M0 363L22.8 370.3C45.7 377.7 91.3 392.3 137 402.8C182.7 413.3 228.3 419.7 274 423.2C319.7 426.7 365.3 427.3 411.2 425.8C457 424.3 503 420.7 548.8 416.5C594.7 412.3 640.3 407.7 686 404.5C731.7 401.3 777.3 399.7 823 404.2C868.7 408.7 914.3 419.3 937.2 424.7L960 430L960 541L937.2 541C914.3 541 868.7 541 823 541C777.3 541 731.7 541 686 541C640.3 541 594.7 541 548.8 541C503 541 457 541 411.2 541C365.3 541 319.7 541 274 541C228.3 541 182.7 541 137 541C91.3 541 45.7 541 22.8 541L0 541Z" fill="#2856ff"></path><path d="M0 419L22.8 421C45.7 423 91.3 427 137 431.2C182.7 435.3 228.3 439.7 274 441.8C319.7 444 365.3 444 411.2 443.3C457 442.7 503 441.3 548.8 441.8C594.7 442.3 640.3 444.7 686 445.2C731.7 445.7 777.3 444.3 823 443.2C868.7 442 914.3 441 937.2 440.5L960 440L960 541L937.2 541C914.3 541 868.7 541 823 541C777.3 541 731.7 541 686 541C640.3 541 594.7 541 548.8 541C503 541 457 541 411.2 541C365.3 541 319.7 541 274 541C228.3 541 182.7 541 137 541C91.3 541 45.7 541 22.8 541L0 541Z" fill="#0079ff"></path><path d="M0 472L22.8 470.8C45.7 469.7 91.3 467.3 137 460.7C182.7 454 228.3 443 274 441.8C319.7 440.7 365.3 449.3 411.2 451.8C457 454.3 503 450.7 548.8 447.8C594.7 445 640.3 443 686 442C731.7 441 777.3 441 823 443.5C868.7 446 914.3 451 937.2 453.5L960 456L960 541L937.2 541C914.3 541 868.7 541 823 541C777.3 541 731.7 541 686 541C640.3 541 594.7 541 548.8 541C503 541 457 541 411.2 541C365.3 541 319.7 541 274 541C228.3 541 182.7 541 137 541C91.3 541 45.7 541 22.8 541L0 541Z" fill="#1394fe"></path><path d="M0 478L22.8 479.5C45.7 481 91.3 484 137 485.2C182.7 486.3 228.3 485.7 274 487.3C319.7 489 365.3 493 411.2 496.7C457 500.3 503 503.7 548.8 500.8C594.7 498 640.3 489 686 490.2C731.7 491.3 777.3 502.7 823 504.3C868.7 506 914.3 498 937.2 494L960 490L960 541L937.2 541C914.3 541 868.7 541 823 541C777.3 541 731.7 541 686 541C640.3 541 594.7 541 548.8 541C503 541 457 541 411.2 541C365.3 541 319.7 541 274 541C228.3 541 182.7 541 137 541C91.3 541 45.7 541 22.8 541L0 541Z" fill="#4facf7"></path></svg>